<?xml version="1.0" encoding="utf-8"?>
<!-- Generator: Adobe Illustrator 16.0.0, SVG Export Plug-In . SVG Version: 6.00 Build 0)  -->
<!DOCTYPE svg PUBLIC "-//W3C//DTD SVG 1.1//EN" "http://www.w3.org/Graphics/SVG/1.1/DTD/svg11.dtd">
<svg version="1.1" id="Layer_1" xmlns="http://www.w3.org/2000/svg" xmlns:xlink="http://www.w3.org/1999/xlink" x="0px" y="0px"
	 width="39px" height="39px" viewBox="0 0 39 39" enable-background="new 0 0 39 39" xml:space="preserve">
<g>
	<path fill="#161414" d="M19.5,0C8.748,0,0,8.748,0,19.5S8.748,39,19.5,39S39,30.252,39,19.5S30.252,0,19.5,0z M19.5,38
		C9.299,38,1,29.701,1,19.5S9.299,1,19.5,1S38,9.299,38,19.5S29.701,38,19.5,38z"/>
	<polygon fill="#161414" points="25.131,13.162 20,18.76 14.869,13.162 14.131,13.838 19.322,19.5 14.131,25.162 14.869,25.838 
		20,20.24 25.131,25.838 25.869,25.162 20.678,19.5 25.869,13.838 	"/>
</g>
</svg>
