<?xml version="1.0" encoding="utf-8"?>
<!-- Generator: Adobe Illustrator 16.0.0, SVG Export Plug-In . SVG Version: 6.00 Build 0)  -->
<!DOCTYPE svg PUBLIC "-//W3C//DTD SVG 1.1//EN" "http://www.w3.org/Graphics/SVG/1.1/DTD/svg11.dtd">
<svg version="1.1" id="Layer_1" xmlns="http://www.w3.org/2000/svg" xmlns:xlink="http://www.w3.org/1999/xlink" x="0px" y="0px"
	 width="173.115px" height="16.366px" viewBox="0 0 173.115 16.366" enable-background="new 0 0 173.115 16.366"
	 xml:space="preserve">
<g>
	<path fill="#FFFFFF" d="M0,0.226h2.283v13.877h7.183v2.081H0V0.226z"/>
	<path fill="#FFFFFF" d="M29.71,0.226h9.047v2.033h-6.761v4.867h6.532v2.043h-6.532v4.958h6.978v2.033H29.71V0.226z"/>
	<path fill="#FFFFFF" d="M65.049,16.184h-5.4V0.226h4.178c1.32,0,2.347,0.179,3.083,0.534c0.74,0.354,1.304,0.841,1.692,1.462
		c0.388,0.618,0.581,1.337,0.581,2.151c0,1.57-0.811,2.691-2.432,3.37c1.166,0.22,2.091,0.699,2.783,1.439
		c0.689,0.736,1.033,1.621,1.033,2.648c0,0.817-0.213,1.543-0.628,2.182c-0.419,0.638-1.034,1.162-1.848,1.563
		C67.282,15.981,66.269,16.184,65.049,16.184z M63.898,2.259h-1.966v4.799h1.52c1.216,0,2.083-0.233,2.597-0.699
		c0.513-0.463,0.77-1.064,0.77-1.804C66.819,3.026,65.847,2.259,63.898,2.259z M64.067,9.091h-2.135v5.059h2.25
		c1.25,0,2.097-0.098,2.543-0.293c0.446-0.193,0.804-0.497,1.074-0.905c0.267-0.412,0.405-0.854,0.405-1.327
		c0-0.486-0.146-0.932-0.429-1.334c-0.287-0.405-0.692-0.706-1.216-0.902C66.032,9.189,65.202,9.091,64.067,9.091z"/>
	<path fill="#FFFFFF" d="M91.061,0.226h2.283v13.877h7.184v2.081h-9.467V0.226z"/>
	<path fill="#FFFFFF" d="M128.6,0c2.465,0,4.515,0.78,6.157,2.34c1.638,1.56,2.458,3.519,2.458,5.87
		c0,2.354-0.827,4.299-2.482,5.843c-1.655,1.54-3.742,2.313-6.261,2.313c-2.401,0-4.404-0.773-6.008-2.313
		c-1.601-1.543-2.401-3.476-2.401-5.795c0-2.384,0.807-4.357,2.418-5.917C124.094,0.78,126.134,0,128.6,0z M128.69,2.168
		c-1.827,0-3.326,0.571-4.501,1.716c-1.175,1.141-1.763,2.597-1.763,4.374c0,1.719,0.588,3.151,1.77,4.292
		c1.179,1.142,2.651,1.712,4.424,1.712c1.783,0,3.266-0.581,4.458-1.746c1.189-1.166,1.783-2.614,1.783-4.35
		c0-1.692-0.594-3.114-1.783-4.266C131.886,2.746,130.423,2.168,128.69,2.168z"/>
	<path fill="#FFFFFF" d="M170.947,0.226h2.168v15.958h-1.966l-10.665-12.29v12.29h-2.148V0.226h1.851l10.76,12.395V0.226z"/>
</g>
</svg>
