<?xml version="1.0" encoding="utf-8"?>
<!-- Generator: Adobe Illustrator 16.0.0, SVG Export Plug-In . SVG Version: 6.00 Build 0)  -->
<!DOCTYPE svg PUBLIC "-//W3C//DTD SVG 1.1//EN" "http://www.w3.org/Graphics/SVG/1.1/DTD/svg11.dtd">
<svg version="1.1" id="Layer_1" xmlns="http://www.w3.org/2000/svg" xmlns:xlink="http://www.w3.org/1999/xlink" x="0px" y="0px"
	 width="47.421px" height="47px" viewBox="0 0 47.421 47" enable-background="new 0 0 47.421 47" xml:space="preserve">
<g>
	<path fill="#161414" d="M33.676,18.254l-9.992,9.083l-9.99-9.081c-0.364-0.341-0.955-0.341-1.318,0
		c-0.364,0.339-0.364,0.892,0,1.231l10.649,9.958c0.364,0.341,0.955,0.341,1.319,0l10.649-9.958c0.365-0.34,0.365-0.892,0-1.231
		C34.63,17.915,34.041,17.915,33.676,18.254z"/>
	<path fill="#161414" d="M23.711,0C10.637,0,0,10.542,0,23.5S10.637,47,23.711,47s23.71-10.542,23.71-23.5S36.785,0,23.711,0z
		 M23.711,45C11.739,45,2,35.355,2,23.5S11.739,2,23.711,2c11.971,0,21.71,9.645,21.71,21.5S35.682,45,23.711,45z"/>
</g>
</svg>
